<svg version="1.1" xmlns="http://www.w3.org/2000/svg" width="78" height="20.485" viewBox="0 0 78 20.485"><path d="M8.194 1.576v0.315l0.473 0.158c0.298 1.367 0.309 2.549 0.158 3.939h2.521l0.049 -0.512c0.318 -2.444 0.318 -2.444 0.955 -3.161C12.764 2.048 12.764 2.048 13.197 2.058 13.552 2.206 13.552 2.206 13.709 2.521c0.055 0.841 0.055 0.841 -0.149 1.228 -0.216 0.451 -0.267 0.868 -0.335 1.364l-0.083 0.593 -0.083 0.617 -0.087 0.621C12.825 7.881 12.825 7.881 12.764 8.824l0.325 -0.236c0.584 -0.298 0.917 -0.327 1.566 -0.236 0.573 0.361 0.884 0.585 1.083 1.241L15.758 10.085l0.049 0.502C15.705 11.827 15.269 13.022 14.339 13.867c-0.699 0.366 -1.426 0.533 -2.206 0.63l0.01 0.283c-0.026 1 -0.026 1 -0.448 1.405C10.867 16.703 10.867 16.703 10.4 16.703c-0.784 -1.568 -0.099 -4.366 0.069 -6.076l0.032 -0.331C10.683 8.448 10.683 8.448 10.873 7.879l-2.206 0.473c-0.264 0.833 -0.396 1.626 -0.478 2.495l-0.04 0.4q-0.042 0.418 -0.081 0.837c-0.04 0.418 -0.081 0.835 -0.123 1.252 -0.14 1.418 -0.264 2.834 -0.312 4.258 -0.025 0.57 -0.086 0.984 -0.383 1.473 -0.107 0.262 -0.213 0.524 -0.315 0.788h-0.473v0.473c-0.355 0.01 -0.355 0.01 -0.788 -0.158 -1.343 -1.983 -0.829 -4.901 -0.536 -7.124 0.044 -0.333 0.085 -0.666 0.126 -1C5.395 11.006 5.541 9.99 5.83 8.982c-0.731 -0.094 -1.243 -0.049 -1.891 0.315 -0.642 0.981 -0.923 2.197 -1.261 3.309a43.806 43.806 0 0 1 -0.414 1.221l-0.154 0.48C1.891 14.655 1.891 14.655 1.415 14.794 0.945 14.812 0.945 14.812 0.63 14.664 0.218 13.815 1.069 12.2 1.359 11.345l0.155 -0.461A614.073 614.073 0 0 1 1.891 9.77L0.158 9.139l0.158 -0.63a9.612 9.612 0 0 1 1.172 -0.512l0.331 -0.128C2.623 7.564 2.623 7.564 2.994 7.564c0.037 -0.105 0.074 -0.21 0.112 -0.319 0.258 -0.595 0.586 -1.124 0.932 -1.671l0.211 -0.335c1.261 -1.983 1.261 -1.983 1.897 -2.718h0.315v-0.315c1.024 -0.63 1.024 -0.63 1.733 -0.63m-1.103 1.261 -0.156 0.283c-0.298 0.539 -0.595 1.075 -0.918 1.599C5.804 5.025 5.804 5.025 5.83 5.358h-0.315l-0.473 1.418 1.576 -0.315c0.385 -1.159 0.705 -2.245 0.788 -3.467zm6.618 6.933c-0.682 0.768 -1.138 1.534 -1.418 2.521 0.059 0.343 0.059 0.343 0.158 0.63 1.146 -1.409 1.146 -1.409 1.418 -3.152zm-6.461 7.248 0.158 0.315Z" fill="#1C2040"/><path d="M54.206 0.945c0.296 0.296 0.177 0.709 0.179 1.102C54.364 2.364 54.364 2.364 54.206 2.836l0.325 -0.092c1.911 -0.513 3.799 -0.721 5.771 -0.745l0.406 -0.008c0.751 0.001 1.232 0.054 1.85 0.53l-0.158 0.473 -0.328 0.023 -0.43 0.036c-0.141 0.011 -0.282 0.022 -0.427 0.033 -0.429 0.044 -0.429 0.044 -0.864 0.381 -0.297 0.038 -0.297 0.038 -0.65 0.049 -1.245 0.101 -2.42 0.52 -3.605 0.896l-0.465 0.146c-0.32 0.103 -0.637 0.214 -0.953 0.327l-0.341 0.119c-0.325 0.177 -0.325 0.177 -0.404 0.565l-0.05 0.455 -0.058 0.492 -0.052 0.516 -0.06 0.52A106.679 106.679 0 0 0 53.576 8.824l0.263 -0.034a19.539 19.539 0 0 1 2.484 -0.144l0.337 -0.002c0.815 0.002 0.815 0.002 1.17 0.179l0.098 -0.276c0.312 -0.511 0.633 -0.706 1.162 -0.985 0.63 -0.13 1.25 -0.158 1.891 -0.158l0.156 -0.299 0.209 -0.39 0.205 -0.388C61.77 5.988 61.77 5.988 62.242 5.673c0.7 0.037 1.051 0.351 1.576 0.788l-0.127 0.526C62.71 11.06 62.71 11.06 63.188 15.127l-0.158 0.315h-1.103c-0.552 -1.05 -0.748 -1.984 -0.827 -3.161l-0.037 -0.459A90.606 90.606 0 0 1 60.982 10.715l-0.208 0.433C59.171 14.444 59.171 14.444 58.145 14.812c-0.414 0.02 -0.414 0.02 -0.788 -0.158 -0.888 -1.439 -0.433 -3.155 -0.158 -4.727 -1.2 0.202 -2.32 0.542 -3.467 0.945l-0.473 0.158 -0.058 0.576 -0.08 0.763 -0.038 0.378c-0.064 0.604 -0.146 1.181 -0.305 1.767 -0.215 0.8 -0.196 1.602 -0.207 2.427 -0.125 0.687 -0.359 0.896 -0.888 1.338l-0.318 0.284 -0.283 0.238 -0.289 0.244L50.582 19.224c-0.303 -0.121 -0.303 -0.121 -0.63 -0.315 -0.773 -2.318 -0.296 -5.242 0.315 -7.564l-0.345 0.108c-0.562 0.062 -0.78 -0.101 -1.231 -0.424 0.368 -0.553 0.642 -0.807 1.256 -1.021 0.434 -0.209 0.601 -0.326 0.812 -0.765 0.125 -0.457 0.217 -0.909 0.296 -1.376l0.097 -0.48C51.265 6.809 51.37 6.265 51.37 5.673a149.539 149.539 0 0 0 -0.748 0.217l-0.421 0.122c-0.402 0.121 -0.402 0.121 -0.739 0.303 -0.489 0.24 -0.867 0.211 -1.4 0.146 -0.473 -0.315 -0.473 -0.315 -0.788 -0.788 -0.018 -0.455 0.058 -0.81 0.158 -1.261q0.729 -0.168 1.459 -0.336a157.103 157.103 0 0 0 1.16 -0.273l0.543 -0.129 0.498 -0.12C51.527 3.467 51.527 3.467 52.158 3.467l0.092 -0.357 0.124 -0.47 0.122 -0.465C52.615 1.784 52.736 1.452 52.945 1.103c0.43 -0.215 0.785 -0.178 1.261 -0.158m7.721 1.576v0.315l0.315 -0.158zm-2.364 6.776c-0.508 0.63 -0.703 1.412 -0.788 2.206 0.048 0.211 0.1 0.422 0.158 0.63q0.322 -0.619 0.64 -1.241l0.186 -0.356 0.174 -0.342 0.162 -0.315L60.194 9.612l-0.158 -0.315zm1.576 0.158 0.158 0.63Z" fill="#1D2141"/><path d="M23.636 0.315c0.158 0.158 0.158 0.158 0.161 0.447 -0.078 0.959 -0.246 1.876 -0.456 2.813 -0.872 3.952 -1.261 7.844 0.134 11.712C23.636 15.758 23.636 15.758 23.636 16.073c0.81 0.212 1.168 0.079 1.891 -0.315l0.315 0.158 -0.443 0.286c-0.485 0.3 -0.485 0.3 -0.729 0.61 -0.429 0.36 -0.8 0.355 -1.349 0.364 -0.992 -0.255 -1.486 -0.838 -2.013 -1.684C20.641 14.232 20.432 12.916 20.485 11.503l-0.158 0.473h-0.315l-0.315 1.261h-0.315l-0.127 0.284c-0.366 0.676 -0.92 1.18 -1.662 1.404 -0.37 0.055 -0.676 0.098 -1.047 0.046 -0.388 -0.3 -0.471 -0.469 -0.63 -0.945 -0.174 -1.956 0.344 -3.872 1.418 -5.515 0.577 -0.526 0.948 -0.741 1.733 -0.788 0.369 0.042 0.737 0.092 1.103 0.158l0.052 -0.262q0.082 -0.408 0.164 -0.816 0.104 -0.523 0.203 -1.046C21.322 1.95 21.322 1.95 22.061 0.473c0.551 -0.184 0.999 -0.179 1.576 -0.158m-5.2 8.824c-0.442 0.57 -0.545 1.052 -0.591 1.763l-0.037 0.499c-0.034 0.413 -0.034 0.413 0.155 0.732l-0.315 0.158h0.315l0.158 0.315a81.309 81.309 0 0 0 0.66 -1.29c0.064 -0.121 0.128 -0.242 0.194 -0.367C19.143 10.608 19.287 10.295 19.382 9.927c-0.133 -0.488 -0.133 -0.488 -0.473 -0.788zm2.364 4.57 0.158 0.315 0.158 -0.315z" fill="#1C2040"/><path d="M30.255 5.83c0.52 1.407 0.251 2.498 -0.305 3.861C29.218 11.498 29.132 13.354 29.152 15.285h-0.158l-0.148 0.463C28.679 16.23 28.679 16.23 28.521 16.388c-0.374 0.049 -0.374 0.049 -0.788 0 -0.67 -0.75 -0.818 -1.589 -0.77 -2.58 0.066 -0.823 0.159 -1.642 0.263 -2.46 0.042 -0.343 0.042 -0.343 0.034 -0.791l-0.089 0.512C26.839 12.396 26.009 13.844 24.897 14.655c-0.581 0.03 -0.581 0.03 -1.103 -0.158 -0.641 -0.705 -0.646 -1.642 -0.611 -2.552 0.043 -0.579 0.098 -1.155 0.158 -1.733l0.05 -0.6c0.165 -1.612 0.165 -1.612 0.616 -2.102 0.63 -0.395 0.948 -0.333 1.677 -0.262l0.315 0.158c0.041 1.245 -0.006 2.555 -0.484 3.72 -0.185 0.407 -0.185 0.407 -0.147 1.007l0.149 -0.278c0.956 -1.785 1.931 -3.544 3.025 -5.249 0.284 -0.429 0.284 -0.429 0.451 -0.776 0.472 -0.179 0.785 -0.153 1.261 0" fill="#1C2140"/><path d="M73.745 5.83c0.342 0.198 0.342 0.198 0.63 0.473 0.038 0.347 0.038 0.347 -0.02 0.739l-0.05 0.386C74.218 7.879 74.218 7.879 74.068 8.429c-0.237 0.928 -0.326 1.877 -0.431 2.828l-0.068 0.562c-0.117 1.037 -0.146 1.962 0.019 2.994h0.315l-0.315 0.63c-0.443 0.049 -0.443 0.049 -0.945 0 -1.072 -1.187 -0.88 -3.376 -0.945 -4.885l-0.254 0.513 -0.337 0.679 -0.166 0.336C69.816 14.344 69.816 14.344 68.861 14.812c-0.423 0.01 -0.423 0.01 -0.788 -0.158 -0.706 -0.928 -0.57 -2.045 -0.473 -3.152 0.106 -0.703 0.262 -1.37 0.473 -2.048l0.116 -0.38c0.336 -0.852 0.876 -1.174 1.698 -1.538 0.463 -0.155 0.852 -0.195 1.337 -0.131v0.315c0.502 -0.465 0.832 -1.008 1.197 -1.582 0.4 -0.559 0.702 -0.487 1.324 -0.309m-3.467 3.467c-0.637 0.695 -0.775 1.527 -0.808 2.442L69.491 12.133c0.432 -0.524 0.697 -1.076 0.975 -1.694l0.253 -0.559L70.909 9.455zm1.576 0 0.158 0.315Z" fill="#1D2140"/><path d="M42.605 5.791c0.394 0.188 0.707 0.395 1.044 0.67l-0.138 0.581c-0.212 0.955 -0.353 1.918 -0.492 2.886l-0.09 0.59c-0.347 2.081 -0.347 2.081 -0.068 4.137l0.315 0.315 -0.315 0.473c-0.571 0.03 -0.571 0.03 -1.103 0 -0.816 -1.614 -0.797 -3.267 -0.788 -5.042l-0.243 0.502C38.997 14.445 38.997 14.445 37.976 14.812c-0.423 -0.02 -0.423 -0.02 -0.788 -0.158 -0.743 -1.115 -0.48 -2.609 -0.272 -3.869 0.207 -0.98 0.417 -1.922 1.109 -2.67 1.478 -0.825 1.478 -0.825 2.314 -0.709l0.473 0.315 0.108 -0.414c0.274 -0.704 0.8 -1.796 1.684 -1.517M39.394 9.297c-0.507 0.971 -0.651 1.581 -0.63 2.679 0.359 -0.454 0.637 -0.911 0.896 -1.428 0.069 -0.135 0.138 -0.27 0.209 -0.409 0.186 -0.375 0.186 -0.375 0.156 -0.841z" fill="#1E2241"/><path d="M32.441 1.881c0.549 0.094 0.676 0.19 1.123 0.581 0.485 0.818 0.362 1.439 0.173 2.331A37.503 37.503 0 0 0 33.406 6.683l-0.079 0.521q-0.08 0.535 -0.158 1.071l-0.079 0.515 -0.069 0.467L32.933 9.612l-0.315 0.158c-0.069 0.504 -0.069 0.504 -0.089 1.103 -0.035 0.693 -0.075 1.38 -0.168 2.068 -0.054 0.557 -0.011 0.865 0.098 1.398 0.029 0.344 0.049 0.689 0.059 1.034l0.023 0.532C32.461 16.388 32.461 16.388 32.083 16.747L31.673 17.018l-0.315 0.315c-1.639 -1.891 -1.123 -4.855 -0.981 -7.224 0.092 -1.286 0.255 -2.564 0.426 -3.841 0.065 -0.487 0.125 -0.975 0.186 -1.463q0.061 -0.468 0.123 -0.937l0.054 -0.439 0.056 -0.404 0.046 -0.354c0.204 -0.683 0.479 -0.779 1.175 -0.79" fill="#1C2145"/><path d="M76.897 2.048c0.365 0.298 0.578 0.526 0.788 0.945 0.035 0.857 -0.042 1.609 -0.217 2.452 -0.214 1.064 -0.372 2.126 -0.503 3.203 -0.053 0.386 -0.12 0.746 -0.225 1.12h-0.315c-0.101 1.195 -0.167 2.374 -0.14 3.573 0.003 0.182 0.007 0.364 0.01 0.552q0.012 0.547 0.034 1.094c0.028 1.426 0.028 1.426 -0.437 1.912C75.479 17.176 75.479 17.176 75.144 17.195c-0.482 -0.289 -0.686 -0.714 -0.858 -1.239 -0.176 -0.92 -0.114 -1.893 -0.117 -2.828l-0.002 -0.368c-0.003 -2.459 0.245 -4.852 0.597 -7.283 0.059 -0.417 0.117 -0.833 0.17 -1.25l0.042 -0.327q0.058 -0.45 0.115 -0.9C75.164 2.521 75.164 2.521 75.321 2.048c0.6 -0.2 0.962 -0.14 1.576 0" fill="#1E2242"/><path d="M36.242 2.048c0.365 0.298 0.578 0.526 0.788 0.945 0.035 0.857 -0.042 1.609 -0.217 2.452 -0.214 1.064 -0.372 2.126 -0.503 3.203 -0.053 0.386 -0.12 0.746 -0.225 1.12h-0.315q-0.042 0.591 -0.079 1.182l-0.024 0.376c-0.043 0.763 -0.055 1.518 -0.038 2.281l0.01 0.511q0.012 0.499 0.034 0.998c0.025 1.155 0.025 1.155 -0.437 1.773C34.824 17.176 34.824 17.176 34.489 17.195c-0.482 -0.289 -0.686 -0.714 -0.858 -1.239 -0.176 -0.92 -0.114 -1.893 -0.117 -2.828l-0.002 -0.368c-0.003 -2.459 0.245 -4.852 0.597 -7.283 0.059 -0.417 0.117 -0.833 0.17 -1.25l0.042 -0.327q0.058 -0.45 0.115 -0.9C34.509 2.521 34.509 2.521 34.667 2.048c0.6 -0.2 0.962 -0.14 1.576 0" fill="#1D2141"/><path d="M65.453 7.18c0.515 0.086 0.905 0.288 1.359 0.542 0.091 2.821 -0.149 6.448 -1.92 8.755 -0.418 0.444 -0.726 0.634 -1.33 0.729 -0.613 0.016 -1.005 -0.089 -1.477 -0.502l-0.158 -0.473 0.433 -0.158c0.838 -0.516 1.106 -1.347 1.336 -2.281q0.078 -0.361 0.151 -0.723l0.079 -0.365c0.197 -0.935 0.361 -1.861 0.392 -2.818l0.011 -0.347q0.01 -0.353 0.015 -0.707c0.022 -0.562 0.057 -0.893 0.402 -1.346C65.079 7.248 65.079 7.248 65.453 7.179" fill="#1C2040"/><path d="M32.441 1.881c0.549 0.094 0.676 0.19 1.123 0.581 0.615 1.037 0.251 2.096 0 3.211l-0.473 -0.158 -0.023 0.288 -0.036 0.382c-0.011 0.124 -0.022 0.249 -0.033 0.377 -0.068 0.385 -0.189 0.663 -0.381 1.002l-0.63 -0.158 0.02 0.611c0.011 0.344 0.011 0.344 -0.02 0.65l-0.315 0.315c-0.23 -0.417 -0.315 -0.614 -0.315 -1.103h0.315l-0.089 -0.266c-0.081 -0.427 -0.016 -0.734 0.089 -1.152h-0.158l-0.039 0.453L31.358 7.406c-0.323 0.188 -0.323 0.188 -0.63 0.315 0.069 -1.274 0.206 -2.537 0.374 -3.802l0.054 -0.442 0.058 -0.416 0.049 -0.373c0.202 -0.694 0.469 -0.796 1.178 -0.808" fill="#1D2040"/><path d="M31.358 9.612c0.194 0.581 0.245 1.125 0.315 1.733l0.473 0.158c0.32 0.47 0.339 0.778 0.246 1.33 -0.092 0.556 -0.048 0.957 0.069 1.507 0.029 0.344 0.049 0.689 0.059 1.034l0.023 0.532C32.461 16.388 32.461 16.388 32.083 16.747L31.673 17.018l-0.315 0.315c-0.315 -0.207 -0.315 -0.207 -0.63 -0.63 -0.074 -0.583 -0.079 -1.151 0 -1.733l0.315 -0.315 -0.315 -0.158c-0.172 -0.469 -0.164 -0.612 0 -1.103 0.011 -0.215 0.013 -0.43 0.01 -0.644l-0.004 -0.375 -0.012 -0.777 -0.004 -0.375 -0.006 -0.341c0.016 -0.337 0.08 -0.631 0.173 -0.955h0.473z" fill="#272B4D"/><path d="M62.4 5.988c0.532 0.039 0.532 0.039 1.103 0.158 0.211 0.248 0.211 0.248 0.315 0.63a11.188 11.188 0 0 1 -0.286 1.192c-0.251 0.909 -0.421 1.763 -0.459 2.711 -0.047 0.386 -0.166 0.647 -0.358 0.982h-0.158l-0.158 -2.994h0.315v-0.473l-0.473 0.315c-0.057 0.348 -0.057 0.348 -0.029 0.729l0.013 0.39L62.242 9.927l-0.63 0.158 -0.118 -0.295c-0.229 -0.39 -0.414 -0.485 -0.827 -0.65l0.305 -0.236c0.375 -0.455 0.394 -0.767 0.439 -1.344 0.062 -0.446 0.241 -0.747 0.516 -1.099h0.315z" fill="#212547"/><path d="M75.006 8.194c0.243 0.173 0.243 0.173 0.473 0.473 -0.012 0.472 -0.012 0.472 -0.108 1.014l-0.091 0.541c-0.1 0.425 -0.215 0.748 -0.431 1.123 0.312 0.161 0.312 0.161 0.63 0.286 0.381 0.226 0.466 0.413 0.63 0.817l0.158 0.315c0.011 0.428 0.015 0.852 0.01 1.28l-0.002 0.36q-0.003 0.44 -0.008 0.881h-0.63l-0.128 0.286c-0.185 0.34 -0.375 0.559 -0.66 0.817l-0.069 -0.374c-0.069 -0.408 -0.069 -0.408 -0.246 -0.729h0.315c-0.078 -0.434 -0.078 -0.434 -0.315 -0.788a27.261 27.261 0 0 1 -0.02 -1.231l0.001 -0.364c0.008 -0.997 0.069 -1.983 0.176 -2.974h0.473v-0.315l-0.315 -0.158 0.168 -0.276c0.171 -0.411 0.137 -0.574 -0.01 -0.985" fill="#343859"/><path d="M34.509 9.612h0.158c-0.015 0.108 -0.03 0.217 -0.046 0.328l-0.053 0.43 -0.055 0.427c-0.041 0.431 -0.041 0.431 0.312 0.864l0.158 -0.158 0.473 -0.315c0.214 1.147 0.372 2.508 0 3.624h-0.473l-0.158 0.473h-0.473v0.315h0.315l-0.158 0.315 -0.315 -0.158v-0.315l-0.315 -0.158 0.473 -0.315 -0.158 -0.315h0.315l-0.315 -0.502c-0.641 -1.278 -0.344 -2.854 -0.158 -4.225h0.473z" fill="#333757"/><path d="M22.218 10.715c0.357 0.536 0.377 0.824 0.443 1.458 0.14 1.097 0.44 2.077 0.814 3.115C23.636 15.758 23.636 15.758 23.636 16.073c0.81 0.212 1.168 0.079 1.891 -0.315l0.315 0.158 -0.443 0.286c-0.485 0.3 -0.485 0.3 -0.729 0.61C24.267 17.151 23.833 17.139 23.321 17.176l-0.315 -0.158c-0.089 -0.315 -0.089 -0.315 -0.158 -0.699 -0.098 -0.583 -0.098 -0.583 -0.473 -1.034 -0.02 -0.414 -0.02 -0.414 0 -0.788l-0.315 -0.158 0.158 -0.473c-0.065 -0.437 -0.161 -0.863 -0.256 -1.294 -0.062 -0.461 -0.009 -0.779 0.098 -1.228v-0.473z" fill="#272C48"/><path d="M38.764 8.352c0.158 0.473 0.158 0.473 0 0.945l-0.158 0.158 0.158 0.266c0.178 0.412 0.182 0.708 0.158 1.152l-0.315 -0.63h-0.315l0.158 0.945h-0.315l0.158 0.315c0.011 0.243 0.013 0.486 0.01 0.729l-0.004 0.39L38.291 12.921c-0.315 -0.473 -0.315 -0.473 -0.315 -0.788l-1.103 0.315c-0.056 -1.137 0.132 -2.068 0.473 -3.152l0.788 0.158z" fill="#1E2342"/><path d="M73.588 6.933c0.194 0.388 0.169 0.674 0.158 1.103l0.158 -0.315 0.315 0.158 -0.138 0.473c-0.274 1.082 -0.366 2.202 -0.492 3.309h-0.315l-0.158 -1.103h-0.315l-0.158 0.473v-0.473h-0.473l-0.158 1.733h-0.158V10.4l-0.473 -0.158c0.276 -0.768 0.276 -0.768 0.63 -0.945l-0.473 -0.158c0.187 -0.246 0.187 -0.246 0.473 -0.473 0.424 0.049 0.424 0.049 0.788 0.158l0.069 0.542c0.027 0.531 0.027 0.531 0.246 0.719 0.005 -0.297 0.005 -0.297 0.01 -0.601l0.006 -0.338c-0.002 -0.354 -0.002 -0.354 -0.173 -0.795l0.315 -0.158q0.089 -0.55 0.158 -1.103z" fill="#202443"/><path d="M31.358 9.612c0.194 0.581 0.245 1.125 0.315 1.733l0.473 0.158c0.256 0.319 0.319 0.545 0.299 0.952 -0.039 0.314 -0.09 0.627 -0.142 0.939h-0.315v0.945h-0.158v-1.103h-0.788l-0.158 -0.63 -0.083 -0.293c-0.079 -0.359 -0.095 -0.679 -0.094 -1.046l-0.001 -0.359c0.021 -0.346 0.084 -0.648 0.179 -0.98h0.473z" fill="#313657"/><path d="M42.545 10.873h0.315l-0.079 0.591c-0.184 1.614 -0.184 1.614 0.079 3.191l0.315 0.315 -0.315 0.473c-0.571 0.03 -0.571 0.03 -1.103 0 -0.443 -0.948 -0.885 -1.93 -0.63 -2.994l0.473 -0.315 0.158 1.576 0.158 -0.315 0.315 -0.158c0.067 -0.365 0.117 -0.734 0.158 -1.103q0.044 -0.35 0.089 -0.699z" fill="#1E223E"/><path d="M30.885 8.036c0.278 0.487 0.315 0.667 0.315 1.261a10.873 10.873 0 0 0 0.158 0.63h-0.473v0.473l0.315 0.158 -0.315 0.315c-0.019 0.438 -0.022 0.862 -0.01 1.3 0.018 0.798 0.014 1.537 -0.148 2.324l0.473 0.158 -0.315 0.315 0.158 0.315h-0.315l0.158 0.945 -0.315 0.158c-0.799 -2.396 -0.371 -5.74 0 -8.194z" fill="#1D213F"/><path d="M60.036 2.206h2.206l0.315 0.63c-0.884 0.255 -1.718 0.474 -2.629 0.591 -1.316 0.195 -2.565 0.587 -3.831 0.985v-0.315c1.322 -0.737 2.565 -1.184 4.097 -1.103zm1.891 0.315v0.315l0.315 -0.158z" fill="#1E233F"/><path d="M59.091 7.879c0.391 0.391 0.422 0.716 0.478 1.256 -0.01 0.607 -0.346 0.954 -0.725 1.393C58.618 10.715 58.618 10.715 58.303 10.715v1.418l-0.63 -0.158v-0.788l0.158 0.315h0.315l0.018 -0.444c0.127 -2.379 0.127 -2.379 0.928 -3.181" fill="#1F2243"/><path d="M72.327 10.715h0.158l0.118 0.463L72.8 11.661l0.63 0.158v2.048l-0.315 0.158 -0.315 -0.158 -0.158 0.315c-0.348 -0.473 -0.48 -0.694 -0.433 -1.29C72.327 12.448 72.327 12.448 72.485 12.133h-0.315z" fill="#202445"/><path d="m70.279 7.406 0.315 0.315 0.266 0.207C71.067 8.194 71.067 8.194 71.018 8.617L70.909 8.982h-1.103l-0.315 0.788h-0.315l-0.158 2.364h-0.158c-0.09 -2.561 -0.09 -2.561 0.473 -3.624l0.473 -0.315 0.158 -0.473h0.315z" fill="#1D2144"/><path d="M31.83 9.139h0.63v0.315l0.473 0.158 -0.315 0.158c-0.062 0.439 -0.062 0.439 -0.079 0.945 -0.025 0.522 -0.025 0.522 -0.079 0.945l-0.315 0.158c-0.434 -0.375 -0.626 -0.711 -0.788 -1.261a15.285 15.285 0 0 1 0 -1.103h0.473z" fill="#1C2042"/><path d="M65.867 4.097c0.305 0.345 0.305 0.345 0.473 0.788 -0.128 0.443 -0.128 0.443 -0.315 0.788 -0.567 0.052 -0.853 0.064 -1.329 -0.266C64.448 5.042 64.448 5.042 64.488 4.609L64.606 4.255c0.48 -0.16 0.763 -0.232 1.261 -0.158" fill="#1C203C"/><path d="M6.618 2.836c0.19 0.254 0.19 0.254 0.315 0.63 -0.199 0.475 -0.199 0.475 -0.512 0.985 -0.102 0.17 -0.203 0.34 -0.308 0.515L5.83 5.358h-0.315l-0.039 0.433C5.343 6.366 5.172 6.561 4.727 6.933c-0.19 -0.571 -0.086 -0.731 0.158 -1.261h0.315l-0.158 -0.473c0.118 -0.295 0.118 -0.295 0.315 -0.63l0.236 -0.433L5.83 3.782h0.315l0.059 -0.295C6.303 3.152 6.303 3.152 6.618 2.836" fill="#313452"/><path d="M34.509 9.612h0.158c-0.015 0.108 -0.03 0.217 -0.046 0.328l-0.053 0.43 -0.055 0.427c-0.041 0.431 -0.041 0.431 0.312 0.864l0.158 -0.158 0.473 -0.315 0.158 1.103h-0.473l-0.315 0.63 -0.295 -0.226c-0.32 -0.25 -0.32 -0.25 -0.65 -0.404l0.158 -2.364h0.473zm0 2.521 0.158 0.315Z" fill="#282D4C"/><path d="M65.394 14.024c0.228 0.734 0.113 1.338 -0.158 2.048 -0.266 0.393 -0.545 0.69 -0.945 0.945 -0.453 0.059 -0.453 0.059 -0.788 0l-0.158 -0.473 0.374 -0.029L64.133 16.388c0.196 -0.38 0.196 -0.38 0.315 -0.788l0.315 -0.315 0.069 -0.473 0.089 -0.473z" fill="#25294A"/><path d="M61.139 11.188h0.473l-0.108 0.552c-0.086 0.656 0.053 1.064 0.313 1.66 0.173 0.483 0.143 0.904 0.111 1.413l0.473 -0.158 0.473 0.315 0.158 -0.315 0.158 0.473 -0.158 0.315h-1.103c-0.728 -1.433 -0.813 -2.668 -0.788 -4.255" fill="#1D203A"/><path d="M73.588 6.933c0.194 0.388 0.169 0.674 0.158 1.103l0.158 -0.315 0.315 0.158 -0.138 0.473c-0.274 1.082 -0.366 2.202 -0.492 3.309h-0.315l-0.029 -0.604 -0.04 -0.785 -0.019 -0.398 -0.02 -0.383 -0.017 -0.352c-0.024 -0.347 -0.024 -0.347 -0.19 -0.787l0.315 -0.158q0.089 -0.55 0.158 -1.103z" fill="#2A2C48"/><path d="M62.4 12.448h0.315l0.158 2.521 -0.63 -0.158 -0.315 0.315c-0.208 -0.782 -0.172 -1.562 -0.158 -2.364l0.315 0.158z" fill="#212445"/><path d="M31.988 14.812h0.473c0.046 0.533 0.069 1.045 0 1.576 -0.374 0.394 -0.374 0.394 -0.788 0.63l-0.315 0.315a14.339 14.339 0 0 1 -0.63 -0.63v-0.315h0.473l0.315 -0.63h0.315z" fill="#1C203C"/><path d="M53.733 0.926C54.206 0.945 54.206 0.945 54.364 1.103c0.037 1.149 0.037 1.149 -0.158 1.733l0.788 -0.158 -0.315 0.158 -0.158 0.315h-0.473v-0.315h-0.473v-0.788h-0.315a20.327 20.327 0 0 1 -0.158 -0.945c0.158 -0.158 0.158 -0.158 0.63 -0.177" fill="#232541"/><path d="M38.764 8.352c0.158 0.473 0.158 0.473 0 0.945l-0.158 0.158 0.158 0.266c0.178 0.412 0.182 0.708 0.158 1.152l-0.315 -0.63h-0.315l0.158 0.945h-0.315l0.158 0.315c0.011 0.243 0.013 0.486 0.01 0.729l-0.004 0.39L38.291 12.921c-0.341 -0.511 -0.37 -0.74 -0.414 -1.339l-0.036 -0.458A15.442 15.442 0 0 1 37.818 10.242l0.315 0.158 0.018 -0.288c0.103 -1.251 0.103 -1.251 0.612 -1.76" fill="#363D5A"/><path d="M7.721 13.709h0.158l-0.029 0.354C7.734 15.52 7.646 16.977 7.564 18.436l-0.315 -0.63h-0.315c-0.158 -0.473 -0.158 -0.473 0 -0.945l-0.02 -0.374C6.933 16.073 6.933 16.073 7.17 15.698c0.302 -0.529 0.247 -0.916 0.236 -1.517zm-0.473 3.309 0.158 0.315Z" fill="#111730"/><path d="m31.515 6.303 0.315 0.158 -0.158 1.418h-0.315l0.315 1.261h-0.315v0.473c-0.315 -0.158 -0.315 -0.158 -0.473 -0.473l0.158 -0.473 -0.315 -0.473c0.057 -0.466 0.133 -0.606 0.473 -0.945a19.855 19.855 0 0 0 0.315 -0.945" fill="#1F2249"/><path d="m33.564 11.818 0.473 0.158 -0.017 0.283c-0.028 0.811 0.035 1.232 0.489 1.924 -0.059 0.345 -0.059 0.345 -0.158 0.63l0.158 0.315 -0.473 -0.158 -0.158 -0.315 -0.315 0.315z" fill="#222545"/><path d="m31.042 11.503 0.374 0.089c0.409 0.11 0.409 0.11 0.729 -0.089 0.446 0.63 0.278 1.17 0.158 1.891l-0.158 -0.315 -0.384 -0.049L31.358 12.921c-0.293 -0.516 -0.315 -0.814 -0.315 -1.418" fill="#2C314F"/><path d="M62.715 7.721h0.315v1.576l0.011 0.403 0.009 0.454 0.011 0.452c-0.032 0.434 -0.124 0.685 -0.346 1.054h-0.158l-0.158 -2.994h0.315l-0.089 -0.384L62.558 7.879z" fill="#313753"/><path d="m8.036 1.891 0.63 0.158 0.315 1.891h-0.473l-0.158 0.315 -0.315 -0.473 0.315 -0.473v-0.473l-0.473 -0.158z" fill="#2B3149"/><path d="M33.091 5.515h0.315c0.028 0.867 -0.075 1.66 -0.236 2.511l-0.068 0.372Q33.018 8.848 32.933 9.297l-0.473 0.158z" fill="#292C47"/><path d="m63.03 5.988 0.788 0.473 -0.63 2.836 -0.473 -0.158q0.073 -0.35 0.148 -0.699l0.083 -0.393C63.03 7.721 63.03 7.721 63.188 7.564a13.236 13.236 0 0 0 -0.069 -0.798l-0.049 -0.439z" fill="#1E213C"/><path d="M55.624 10.085a33.406 33.406 0 0 1 -1.359 0.65l-0.371 0.169C53.576 11.03 53.576 11.03 53.261 11.03l-0.158 1.733 -0.473 -0.158 0.079 -0.345c0.096 -0.435 0.096 -0.435 0.049 -0.847C52.788 11.03 52.788 11.03 53.034 10.686 53.828 10.095 54.66 10.045 55.624 10.085" fill="#1B1E36"/><path d="m27.891 7.721 0.315 0.158c-0.118 0.906 -0.118 0.906 -0.473 1.261l-0.138 0.483L27.418 10.085c-0.335 0.138 -0.335 0.138 -0.63 0.158 0 -0.734 0.175 -0.997 0.552 -1.615l0.31 -0.515z" fill="#31344D"/><path d="m42.388 5.988 0.473 0.158c0.147 0.986 0.191 1.737 -0.158 2.679l-0.315 -0.158 0.017 -0.334 0.013 -0.435 0.017 -0.432L42.388 7.091l-0.473 -0.315c0.059 -0.305 0.059 -0.305 0.158 -0.63z" fill="#252A4B"/><path d="M21.115 14.97c0.463 0.118 0.463 0.118 0.945 0.315 0.098 0.315 0.098 0.315 0.158 0.63 0.305 0.172 0.305 0.172 0.63 0.315l0.315 0.473 -0.315 0.315c-0.746 -0.554 -1.433 -1.147 -1.733 -2.048" fill="#181C37"/><path d="M26.473 10.085h0.788c-0.046 1.012 -0.229 1.674 -0.788 2.521h-0.315v-0.63h0.315l0.158 -1.261h-0.315z" fill="#232745"/><path d="M30.255 5.83c0.158 0.158 0.158 0.158 0.177 0.532C30.412 6.776 30.412 6.776 30.255 7.248l-0.473 0.158 0.158 -1.103h-1.103l0.158 -0.473c0.464 -0.192 0.792 -0.162 1.261 0" fill="#22243A"/><path d="M60.667 2.364h1.733v0.63l-1.891 0.158zm1.261 0.158v0.315l0.315 -0.158z" fill="#2A2F46"/><path d="M75.006 8.194c0.243 0.173 0.243 0.173 0.473 0.473 -0.012 0.472 -0.012 0.472 -0.108 1.014l-0.091 0.541c-0.1 0.425 -0.215 0.748 -0.431 1.123l0.315 0.158 -0.473 0.315V9.927h0.473v-0.315l-0.315 -0.158 0.168 -0.276c0.171 -0.411 0.137 -0.574 -0.01 -0.985" fill="#414764"/><path d="M76.267 14.812v0.473h-0.63l-0.128 0.286c-0.185 0.34 -0.375 0.559 -0.66 0.817l-0.069 -0.374c-0.069 -0.408 -0.069 -0.408 -0.246 -0.729h0.315v-0.315c0.466 -0.233 0.905 -0.167 1.418 -0.158" fill="#2A2E4E"/><path d="m69.491 8.352 0.315 0.158 -0.315 1.261h-0.315l-0.158 2.364h-0.158c-0.088 -2.503 -0.088 -2.503 0.473 -3.624z" fill="#393F5F"/><path d="m76.582 6.933 0.473 0.158q-0.034 0.493 -0.069 0.985l-0.039 0.554C76.908 9.031 76.853 9.385 76.739 9.77h-0.315v0.788h-0.158c0.142 -1.842 0.142 -1.842 0.246 -2.521 0.084 -0.497 0.084 -0.497 0.069 -1.103" fill="#292B44"/><path d="M58.776 3.152v0.473l-2.679 0.788v-0.315c0.893 -0.487 1.656 -0.879 2.679 -0.945" fill="#5A5D74"/><path d="M7.406 13.236h0.315c0.197 0.592 0.069 0.695 -0.158 1.261 -0.072 0.42 -0.114 0.836 -0.158 1.261l-0.315 -0.158 0.158 -1.576h-0.315c0.158 -0.473 0.158 -0.473 0.473 -0.788" fill="#242A4B"/><path d="M62.4 12.448h0.315v1.733l-0.473 -0.63 -0.315 0.315c-0.158 -0.158 -0.158 -0.158 -0.167 -0.64L61.77 12.764l0.315 0.158z" fill="#232840"/><path d="M38.764 8.352c0.158 0.473 0.158 0.473 0 0.945l-0.158 0.158 0.158 0.266c0.178 0.412 0.182 0.708 0.158 1.152l-0.315 -0.63h-0.315c-0.149 -0.41 -0.205 -0.679 -0.028 -1.086 0.158 -0.274 0.329 -0.54 0.5 -0.805" fill="#212444"/><path d="M20.327 10.558h0.473l0.158 0.788 -0.63 0.315v0.315l-0.473 -0.158c0.099 -0.462 0.25 -0.845 0.473 -1.261" fill="#282D48"/><path d="M34.509 9.612h0.158l-0.158 1.891h-0.473V9.927h0.473z" fill="#33385A"/><path d="m58.776 8.194 0.315 0.158v0.788h-0.315v0.63h-0.315l-0.158 0.63c-0.055 -0.891 0.089 -1.423 0.473 -2.206" fill="#35395C"/><path d="m36.242 6.933 0.315 0.158q-0.107 0.463 -0.217 0.926l-0.122 0.521C36.085 8.982 36.085 8.982 35.77 9.297c-0.189 -0.568 -0.104 -0.792 0.059 -1.359l0.132 -0.469C36.085 7.091 36.085 7.091 36.242 6.933" fill="#272C45"/><path d="M7.406 2.521c0.342 0.08 0.63 0.158 0.945 0.315 0.098 0.325 0.098 0.325 0.158 0.63h-0.315v0.315h-0.315l-0.158 0.315 -0.108 -0.954C7.577 2.825 7.577 2.825 7.406 2.521" fill="#222747"/><path d="m5.042 5.2 0.473 0.158c-0.068 0.749 -0.209 1.09 -0.788 1.576 -0.19 -0.571 -0.086 -0.731 0.158 -1.261h0.315z" fill="#2F3351"/><path d="m74.848 11.661 0.945 0.158 -0.158 1.103c-0.473 -0.158 -0.473 -0.158 -0.66 -0.453C74.848 12.133 74.848 12.133 74.848 11.661" fill="#292E4E"/><path d="M72.012 8.667c0.424 0.049 0.424 0.049 0.788 0.158 0.03 0.532 0.03 0.532 0 1.103l-0.473 0.315 -0.039 -0.374c-0.075 -0.437 -0.075 -0.437 -0.443 -0.62L71.539 9.139c0.187 -0.246 0.187 -0.246 0.473 -0.473" fill="#282D4C"/><path d="m75.952 12.606 0.315 0.158q0.012 0.384 0.02 0.768l0.011 0.432C76.267 14.339 76.267 14.339 75.952 14.655h-0.473v-0.315l0.315 -0.158 -0.315 -0.315 0.315 -0.315c0.006 -0.263 0.007 -0.525 0 -0.788z" fill="#2A2E4A"/><path d="M73.903 6.303h0.473l-0.158 1.418h-0.315l-0.158 0.788h-0.158v-0.945l0.315 -0.158z" fill="#1E203C"/><path d="m34.824 14.339 0.315 0.158v0.315h0.473v0.473h-0.63l-0.158 0.473 -0.473 -0.158v-0.315l0.236 -0.226C34.879 14.812 34.879 14.812 34.824 14.339" fill="#272B4B"/><path d="M14.655 8.352a27.418 27.418 0 0 1 -1.379 0.65l-0.382 0.169L12.606 9.297l-0.315 -0.315 0.315 -0.315h0.473c0.574 -0.383 0.9 -0.341 1.576 -0.315" fill="#191C33"/><path d="m5.988 3.939 0.473 0.158 -0.63 1.261 -0.63 -0.158 0.315 -0.63h0.315z" fill="#4F5268"/><path d="m53.261 1.261 0.473 0.158 -0.158 0.315h0.315V1.261l0.315 0.158 -0.315 1.418h-0.315v-0.788h-0.315z" fill="#323659"/><path d="M51.685 17.018h0.63c-0.029 0.453 -0.029 0.453 -0.158 0.945 -0.404 0.217 -0.404 0.217 -0.788 0.315 0.059 -0.305 0.059 -0.305 0.158 -0.63l0.315 -0.158z" fill="#252A45"/><path d="m31.042 11.503 0.788 0.315c0.03 0.374 0.03 0.374 0 0.788l-0.473 0.315c-0.236 -0.531 -0.315 -0.82 -0.315 -1.418" fill="#252A49"/><path d="M34.036 13.552c0.246 0.276 0.246 0.276 0.473 0.63 -0.059 0.335 -0.059 0.335 -0.158 0.63l0.158 0.315 -0.473 -0.158c-0.215 -0.43 -0.178 -0.785 -0.158 -1.261z" fill="#282D4F"/><path d="M40.655 10.085c0.139 0.389 0.178 0.573 0.035 0.968l-0.183 0.332 -0.182 0.337L40.182 11.976l-0.315 -0.158c0.193 -0.639 0.425 -1.173 0.788 -1.733" fill="#282A46"/><path d="m34.352 8.194 0.63 0.63c-0.217 0.394 -0.217 0.394 -0.473 0.788h-0.315c-0.02 -1.064 -0.02 -1.064 0.158 -1.418" fill="#333959"/><path d="m73.115 5.83 0.788 0.158v0.473l-0.315 0.315v-0.315h-0.63z" fill="#30334F"/><path d="M58.145 10.4h0.158v1.733l-0.63 -0.158v-0.788l0.158 0.315h0.315z" fill="#31365B"/><path d="M4.885 15.285c0.473 0 0.473 0 0.945 0.158l-0.305 0.236c-0.454 0.55 -0.436 0.951 -0.483 1.655h-0.158z" fill="#161839"/><path d="M7.564 11.661c0.315 0.158 0.315 0.158 0.443 0.532C8.036 12.606 8.036 12.606 7.81 12.892L7.564 13.079l-0.158 -0.473 -0.315 -0.158z" fill="#272A4E"/><path d="M60.824 9.77c0.176 0.273 0.176 0.273 0.315 0.63 -0.107 0.337 -0.107 0.337 -0.295 0.67l-0.186 0.337L60.509 11.661l-0.315 -0.158 0.315 -1.103h0.315z" fill="#272946"/><path d="m34.036 15.442 0.158 0.315c0.319 0.103 0.319 0.103 0.63 0.158v0.63c-0.295 -0.029 -0.295 -0.029 -0.63 -0.158 -0.197 -0.404 -0.197 -0.404 -0.315 -0.788z" fill="#23274A"/><path d="M65.394 14.024c0.175 0.524 0.133 0.886 0 1.418h-0.315l-0.158 -1.103z" fill="#282C4D"/><path d="m73.273 14.182 0.315 0.63h0.315v0.315c-0.474 0.147 -0.609 0.165 -1.103 0 0.158 -0.473 0.158 -0.473 0.473 -0.945" fill="#232645"/><path d="M69.806 13.867v0.315c-0.834 0.63 -0.834 0.63 -1.418 0.63 0.158 -0.473 0.158 -0.473 0.532 -0.739C69.333 13.867 69.333 13.867 69.806 13.867" fill="#1A1D36"/><path d="M74.533 13.709c0.305 0.128 0.305 0.128 0.63 0.315l0.158 0.473 -0.473 0.315c-0.315 -0.315 -0.315 -0.315 -0.335 -0.729z" fill="#2B2E51"/><path d="m29.939 5.988 0.473 0.315 -0.158 0.945 -0.473 0.158z" fill="#2A2F4F"/><path d="M52.158 4.885c0.108 0.266 0.108 0.266 0.158 0.63 -0.207 0.433 -0.207 0.433 -0.473 0.788h-0.315l0.089 -0.374c0.11 -0.409 0.11 -0.409 -0.089 -0.729h0.63z" fill="#272A46"/><path d="M76.739 2.206c0.397 0.053 0.579 0.09 0.827 0.414 0.158 0.5 0.138 0.956 0.118 1.477h-0.158v-0.788h-0.315l-0.059 -0.286c-0.091 -0.386 -0.091 -0.386 -0.414 -0.818" fill="#181C33"/><path d="m65.236 15.442 0.158 0.315 -0.788 0.945 -0.315 -0.315 0.315 -0.473h0.315v-0.315z" fill="#1C213E"/><path d="M11.976 15.758c-0.377 0.457 -0.679 0.552 -1.261 0.63l0.158 -0.63c0.474 -0.147 0.609 -0.165 1.103 0" fill="#181C36"/><path d="m73.273 8.982 0.473 0.158v0.788h-0.315v0.945h-0.158z" fill="#393A58"/><path d="M31.2 8.352h0.315l0.158 0.788h-0.315v0.473c-0.315 -0.158 -0.315 -0.158 -0.473 -0.473 0.148 -0.414 0.148 -0.414 0.315 -0.788" fill="#3A3E5E"/><path d="M8.509 2.679h0.158c0.031 0.954 0.031 0.954 0 1.261l-0.315 0.315 -0.315 -0.473 0.315 -0.473c0.1 -0.333 0.1 -0.333 0.158 -0.63" fill="#33375A"/><path d="M50.739 16.861c0.246 0.286 0.246 0.286 0.473 0.63l-0.158 0.473 -0.63 -0.158v-0.63h0.315z" fill="#2D3254"/><path d="M72.17 12.764h0.315v0.315h0.315v1.103c-0.621 -0.524 -0.621 -0.524 -0.67 -1.064z" fill="#292E51"/><path d="M66.024 12.448c0 0.569 -0.151 1.033 -0.315 1.576l-0.473 -0.158c0.172 -0.595 0.301 -1.02 0.788 -1.418" fill="#292C4B"/><path d="m1.418 8.194 -0.158 0.473 -0.473 0.158c-0.211 0.103 -0.422 0.207 -0.63 0.315 0.03 -0.295 0.03 -0.295 0.158 -0.63 0.385 -0.197 0.669 -0.315 1.103 -0.315" fill="#191B36"/><path d="m31.515 6.303 0.315 0.158 -0.158 1.418h-0.315q-0.006 -0.35 -0.01 -0.699l-0.006 -0.393C31.358 6.461 31.358 6.461 31.515 6.303" fill="#252A50"/><path d="M36.4 5.2c0.255 0.405 0.322 0.579 0.256 1.064L36.558 6.618l-0.473 0.158c0.138 -1.221 0.138 -1.221 0.315 -1.576" fill="#292C47"/><path d="M8.509 3.939h0.315l0.158 0.473a14.339 14.339 0 0 1 -0.63 0.63h-0.315c0.132 -0.395 0.283 -0.736 0.473 -1.103" fill="#232645"/><path d="M6.145 19.539h0.473l-0.158 0.788 -0.788 -0.158 0.315 -0.158z" fill="#282942"/><path d="M62.242 12.606h0.158c0.03 0.453 0.03 0.453 0 0.945l-0.473 0.315c-0.158 -0.158 -0.158 -0.158 -0.167 -0.64L61.77 12.764l0.315 0.158z" fill="#35395C"/><path d="m18.594 7.721 1.576 0.158 -0.473 0.473 -1.103 -0.315z" fill="#181C33"/><path d="m25.527 15.758 0.315 0.158 -0.463 0.295c-0.487 0.281 -0.487 0.281 -0.64 0.65h-0.315c0.02 -0.286 0.02 -0.286 0.158 -0.63 0.463 -0.286 0.463 -0.286 0.945 -0.473" fill="#1E212D"/><path d="M41.6 14.97c0.906 -0.02 0.906 -0.02 1.261 0.158v0.315h-1.103z" fill="#1D2038"/><path d="M1.891 9.77h0.158c0.02 1.064 0.02 1.064 -0.158 1.418l-0.473 -0.158z" fill="#232538"/><path d="M62.4 5.988h0.63l0.158 0.473 -0.315 0.473 -0.158 -0.315 -0.473 -0.158z" fill="#2D3252"/><path d="M72.8 13.867h0.63l-0.315 1.103c-0.23 -0.417 -0.315 -0.614 -0.315 -1.103" fill="#1B1E3F"/><path d="m72.958 12.606 0.473 0.158v0.788l-0.473 0.158z" fill="#292B4B"/><path d="M38.764 8.352c0.158 0.473 0.158 0.473 0 0.945h-0.315l-0.158 0.473 -0.158 -0.315c0.122 -0.272 0.122 -0.272 0.305 -0.571z" fill="#393E63"/><path d="M60.194 2.994c-0.413 0.339 -0.732 0.536 -1.261 0.63v-0.473c0.427 -0.213 0.789 -0.168 1.261 -0.158" fill="#31354D"/><path d="M60.982 2.364h1.261c-0.435 0.435 -0.82 0.406 -1.418 0.473z" fill="#373C58"/><path d="" fill="#191919"/></svg>